<svg width="24" height="23" viewBox="0 0 24 23" fill="none" xmlns="http://www.w3.org/2000/svg">
<path d="M12.0516 3.91986V3.92741H15.9522V9.10068H17.6427V2.26518V2.24432V2.23682H12.0516V3.91475V3.91986Z" fill="#333333"/>
<path d="M17.6427 13.9074V13.8999H15.9522V19.0732H12.0516V20.751V20.7561V20.7638H17.6427V13.9283V13.9074Z" fill="#333333"/>
<path d="M23.8859 11.2695L19.9178 8.26506C19.8647 8.22391 19.8043 8.20703 19.7462 8.20703C19.5966 8.20703 19.4566 8.32534 19.4566 8.49691V9.77683C19.4566 9.9363 19.326 10.0667 19.1667 10.0667H17.6428H15.9522H15.0826C14.9233 10.0667 14.7953 10.1946 14.7953 10.3541V12.646C14.7953 12.8055 14.9233 12.9335 15.0826 12.9335H15.9522H17.6428H19.1667C19.326 12.9335 19.4566 13.0639 19.4566 13.2232V14.5033C19.4566 14.6749 19.5966 14.7932 19.7462 14.7932C19.8043 14.7932 19.8647 14.7763 19.9178 14.7351L23.8859 11.7307C24.038 11.6148 24.038 11.3854 23.8859 11.2695Z" fill="#333333"/>
<path d="M9.59306 0.0366211C9.47953 0.0389648 9.36122 0.0536367 9.24277 0.0873398L1.79681 2.23684L1.31377 2.3769L0.743953 2.54115C0.301969 2.66912 0 3.07253 0 3.53378V19.4667C0 19.9279 0.301969 20.3311 0.743953 20.4593L1.31377 20.6235L1.79681 20.7636L9.24277 22.9131C9.36122 22.9467 9.47953 22.9638 9.59306 22.9638C10.262 22.9638 10.844 22.4203 10.844 21.7079V20.7636V19.073V3.92743V2.23684V1.29254C10.844 0.58009 10.262 0.0366211 9.59306 0.0366211ZM7.47727 12.5013V10.5015C7.47727 10.3687 7.58367 10.2649 7.71403 10.2649H8.499C8.62941 10.2649 8.73319 10.3687 8.73319 10.5015V12.5013C8.73319 12.6317 8.62941 12.7355 8.499 12.7355H7.71403C7.58367 12.7355 7.47727 12.6317 7.47727 12.5013Z" fill="#333333"/>
</svg>
